<?xml version='1.0' encoding='UTF-8' standalone='no'?>
<!-- Created with Fritzing (https://fritzing.org/) -->
<svg xmlns="http://www.w3.org/2000/svg" height="0.10000002in" gorn="0" y="0in" id="svg152"  viewBox="0 0 93.673184 7.1999979" x="0in" version="1.2" width="1.3010164in">
    <desc >
        <referenceFile >13_pin_socket_bb.svg</referenceFile>
    </desc>
    <defs id="defs156" />
    <rect height="7.1999998" fill="#404040" gorn="0.2" y="0" stroke-width="1.14062" id="rect27"  width="93.673157" x="0"/>
    <rect height="2.7831199" fill="none" gorn="0.3" y="2.2740903" id="connector7pin-0"  x="74.241058" width="2.7831199"/>
    <rect height="2.2565801" fill="none" gorn="0.4" y="2.5362003" id="connector7terminal-5"  x="74.550858" width="2.1582899"/>
    <rect height="2.7831199" gorn="0.5" y="2.2740903" id="connector11pin"  x="74.241058" width="2.7831199"/>
    <g  transform="translate(21.632555,0.06566016)">
        <g >
            <polygon fill="#2a2a29" gorn="0.6.0.0" id="polygon117-8"  points="52.6085,2.20843 55.3915,2.20843 56.4165,1.18445 51.5845,1.18445 "/>
        </g>
    </g>
    <g  transform="translate(21.632555,0.06566016)">
        <g >
            <polygon fill="#474747" gorn="0.7.0.0" id="polygon119-8"  points="55.3915,2.20843 55.3915,4.99156 56.4165,6.01654 56.4165,1.18445 "/>
        </g>
    </g>
    <g  transform="translate(21.632555,0.06566016)">
        <g >
            <polygon fill="#595959" gorn="0.8.0.0" id="polygon121-6"  points="55.3915,4.99156 52.6085,4.99156 51.5845,6.01654 56.4165,6.01654 "/>
        </g>
    </g>
    <g  transform="translate(21.632555,0.06566016)">
        <g >
            <polygon fill="#373737" gorn="0.9.0.0" id="polygon123-7"  points="52.6085,4.99156 52.6085,2.20843 51.5845,1.18445 51.5845,6.01654 "/>
        </g>
    </g>
    <rect height="2.7831199" fill="none" gorn="0.10" y="2.2740903" id="connector8pin-3"  x="81.441055" width="2.7831199"/>
    <rect height="2.2565801" fill="none" gorn="0.11" y="2.5362003" id="connector8terminal-0"  x="81.750854" width="2.1582899"/>
    <rect height="2.7831199" gorn="0.12" y="2.2740903" id="connector12pin"  x="81.441055" width="2.7831199"/>
    <g  transform="translate(21.632555,0.06566016)">
        <g >
            <polygon fill="#2a2a29" gorn="0.13.0.0" id="polygon129-7"  points="59.8085,2.20843 62.5915,2.20843 63.6165,1.18445 58.7845,1.18445 "/>
        </g>
    </g>
    <g  transform="translate(21.632555,0.06566016)">
        <g >
            <polygon fill="#474747" gorn="0.14.0.0" id="polygon131-0"  points="62.5915,2.20843 62.5915,4.99156 63.6165,6.01654 63.6165,1.18445 "/>
        </g>
    </g>
    <g  transform="translate(21.632555,0.06566016)">
        <g >
            <polygon fill="#595959" gorn="0.15.0.0" id="polygon133-5"  points="62.5915,4.99156 59.8085,4.99156 58.7845,6.01654 63.6165,6.01654 "/>
        </g>
    </g>
    <g  transform="translate(21.632555,0.06566016)">
        <g >
            <polygon fill="#373737" gorn="0.16.0.0" id="polygon135-8"  points="59.8085,4.99156 59.8085,2.20843 58.7845,1.18445 58.7845,6.01654 "/>
        </g>
    </g>
    <rect height="2.7831199" fill="none" gorn="0.17" y="2.2740903" id="connector9pin-7"  x="88.641052" width="2.7831199"/>
    <rect height="2.2565801" fill="none" gorn="0.18" y="2.5362003" id="connector9terminal-5"  x="88.950851" width="2.1582899"/>
    <rect height="2.7831199" gorn="0.19" y="2.2740903" id="connector13pin"  x="88.641052" width="2.7831199"/>
    <g  transform="translate(21.632555,0.06566016)">
        <g >
            <polygon fill="#2a2a29" gorn="0.20.0.0" id="polygon141-1"  points="67.0085,2.20843 69.7915,2.20843 70.8165,1.18445 65.9845,1.18445 "/>
        </g>
    </g>
    <g  transform="translate(21.632555,0.06566016)">
        <g >
            <polygon fill="#474747" gorn="0.21.0.0" id="polygon143-7"  points="69.7915,2.20843 69.7915,4.99156 70.8165,6.01654 70.8165,1.18445 "/>
        </g>
    </g>
    <g  transform="translate(21.632555,0.06566016)">
        <g >
            <polygon fill="#595959" gorn="0.22.0.0" id="polygon145-0"  points="69.7915,4.99156 67.0085,4.99156 65.9845,6.01654 70.8165,6.01654 "/>
        </g>
    </g>
    <g  transform="translate(21.632555,0.06566016)">
        <g >
            <polygon fill="#373737" gorn="0.23.0.0" id="polygon147-4"  points="67.0085,4.99156 67.0085,2.20843 65.9845,1.18445 65.9845,6.01654 "/>
        </g>
    </g>
    <rect height="2.7831199" fill="none" gorn="0.24" y="2.2084301" id="connector0pin"  x="2.2084301" width="2.7831199"/>
    <rect height="2.2565801" fill="none" gorn="0.25" y="2.47054" id="connector0terminal"  x="2.5183401" width="2.1582899"/>
    <rect height="2.7831199" gorn="0.26" y="2.2084301" id="rect31"  x="2.2084301" width="2.7831199"/>
    <polygon fill="#2a2a29" gorn="0.27" id="polygon33"  points="4.99156,2.20843 6.01654,1.18445 1.18445,1.18445 2.20843,2.20843 "/>
    <polygon fill="#474747" gorn="0.28" id="polygon35"  points="4.99156,4.99156 6.01654,6.01654 6.01654,1.18445 4.99156,2.20843 "/>
    <polygon fill="#595959" gorn="0.29" id="polygon37"  points="2.20843,4.99156 1.18445,6.01654 6.01654,6.01654 4.99156,4.99156 "/>
    <polygon fill="#373737" gorn="0.30" id="polygon39"  points="2.20843,2.20843 1.18445,1.18445 1.18445,6.01654 2.20843,4.99156 "/>
    <rect height="2.7831199" fill="none" gorn="0.31" y="2.2084301" id="connector1pin"  x="9.4084597" width="2.7831199"/>
    <rect height="2.2565801" fill="none" gorn="0.32" y="2.47054" id="connector1terminal"  x="9.7183399" width="2.1582899"/>
    <rect height="2.7831199" gorn="0.33" y="2.2084301" id="rect43"  x="9.4084597" width="2.7831199"/>
    <polygon fill="#2a2a29" gorn="0.34" id="polygon45"  points="12.1915,2.20843 13.2165,1.18445 8.38447,1.18445 9.40846,2.20843 "/>
    <polygon fill="#474747" gorn="0.35" id="polygon47"  points="12.1915,4.99156 13.2165,6.01654 13.2165,1.18445 12.1915,2.20843 "/>
    <polygon fill="#595959" gorn="0.36" id="polygon49"  points="9.40846,4.99156 8.38447,6.01654 13.2165,6.01654 12.1915,4.99156 "/>
    <polygon fill="#373737" gorn="0.37" id="polygon51"  points="9.40846,2.20843 8.38447,1.18445 8.38447,6.01654 9.40846,4.99156 "/>
    <rect height="2.7831199" fill="none" gorn="0.38" y="2.2084301" id="connector2pin"  x="16.6085" width="2.7831199"/>
    <rect height="2.2565801" fill="none" gorn="0.39" y="2.47054" id="connector2terminal"  x="16.918301" width="2.1582899"/>
    <rect height="2.7831199" gorn="0.40" y="2.2084301" id="rect55"  x="16.6085" width="2.7831199"/>
    <polygon fill="#2a2a29" gorn="0.41" id="polygon57"  points="19.3915,2.20843 20.4165,1.18445 15.5845,1.18445 16.6085,2.20843 "/>
    <polygon fill="#474747" gorn="0.42" id="polygon59"  points="19.3915,4.99156 20.4165,6.01654 20.4165,1.18445 19.3915,2.20843 "/>
    <polygon fill="#595959" gorn="0.43" id="polygon61"  points="16.6085,4.99156 15.5845,6.01654 20.4165,6.01654 19.3915,4.99156 "/>
    <polygon fill="#373737" gorn="0.44" id="polygon63"  points="16.6085,2.20843 15.5845,1.18445 15.5845,6.01654 16.6085,4.99156 "/>
    <rect height="2.7831199" fill="none" gorn="0.45" y="2.2084301" id="connector3pin"  x="23.8085" width="2.7831199"/>
    <rect height="2.2565801" fill="none" gorn="0.46" y="2.47054" id="connector3terminal"  x="24.118299" width="2.1582899"/>
    <rect height="2.7831199" gorn="0.47" y="2.2084301" id="rect67"  x="23.8085" width="2.7831199"/>
    <polygon fill="#2a2a29" gorn="0.48" id="polygon69"  points="26.5915,2.20843 27.6165,1.18445 22.7845,1.18445 23.8085,2.20843 "/>
    <polygon fill="#474747" gorn="0.49" id="polygon71"  points="26.5915,4.99156 27.6165,6.01654 27.6165,1.18445 26.5915,2.20843 "/>
    <polygon fill="#595959" gorn="0.50" id="polygon73"  points="23.8085,4.99156 22.7845,6.01654 27.6165,6.01654 26.5915,4.99156 "/>
    <polygon fill="#373737" gorn="0.51" id="polygon75"  points="23.8085,2.20843 22.7845,1.18445 22.7845,6.01654 23.8085,4.99156 "/>
    <rect height="2.7831199" fill="none" gorn="0.52" y="2.2084301" id="connector4pin"  x="31.008499" width="2.7831199"/>
    <rect height="2.2565801" fill="none" gorn="0.53" y="2.47054" id="connector4terminal"  x="31.3183" width="2.1582899"/>
    <rect height="2.7831199" gorn="0.54" y="2.2084301" id="rect79"  x="31.008499" width="2.7831199"/>
    <polygon fill="#2a2a29" gorn="0.55" id="polygon81"  points="33.7915,2.20843 34.8165,1.18445 29.9845,1.18445 31.0085,2.20843 "/>
    <polygon fill="#474747" gorn="0.56" id="polygon83"  points="33.7915,4.99156 34.8165,6.01654 34.8165,1.18445 33.7915,2.20843 "/>
    <polygon fill="#595959" gorn="0.57" id="polygon85"  points="31.0085,4.99156 29.9845,6.01654 34.8165,6.01654 33.7915,4.99156 "/>
    <polygon fill="#373737" gorn="0.58" id="polygon87"  points="31.0085,2.20843 29.9845,1.18445 29.9845,6.01654 31.0085,4.99156 "/>
    <rect height="2.7831199" fill="none" gorn="0.59" y="2.2084301" id="connector5pin"  x="38.2085" width="2.7831199"/>
    <rect height="2.2565801" fill="none" gorn="0.60" y="2.47054" id="connector5terminal"  x="38.518299" width="2.1582899"/>
    <rect height="2.7831199" gorn="0.61" y="2.2084301" id="rect91"  x="38.2085" width="2.7831199"/>
    <polygon fill="#2a2a29" gorn="0.62" id="polygon93"  points="40.9915,2.20843 42.0165,1.18445 37.1845,1.18445 38.2085,2.20843 "/>
    <polygon fill="#474747" gorn="0.63" id="polygon95"  points="40.9915,4.99156 42.0165,6.01654 42.0165,1.18445 40.9915,2.20843 "/>
    <polygon fill="#595959" gorn="0.64" id="polygon97"  points="38.2085,4.99156 37.1845,6.01654 42.0165,6.01654 40.9915,4.99156 "/>
    <polygon fill="#373737" gorn="0.65" id="polygon99"  points="38.2085,2.20843 37.1845,1.18445 37.1845,6.01654 38.2085,4.99156 "/>
    <rect height="2.7831199" fill="none" gorn="0.66" y="2.2084301" id="connector6pin"  x="45.408501" width="2.7831199"/>
    <rect height="2.2565801" fill="none" gorn="0.67" y="2.47054" id="connector6terminal"  x="45.7183" width="2.1582899"/>
    <rect height="2.7831199" gorn="0.68" y="2.2084301" id="rect103"  x="45.408501" width="2.7831199"/>
    <polygon fill="#2a2a29" gorn="0.69" id="polygon105"  points="48.1915,2.20843 49.2165,1.18445 44.3845,1.18445 45.4085,2.20843 "/>
    <polygon fill="#474747" gorn="0.70" id="polygon107"  points="48.1915,4.99156 49.2165,6.01654 49.2165,1.18445 48.1915,2.20843 "/>
    <polygon fill="#595959" gorn="0.71" id="polygon109"  points="45.4085,4.99156 44.3845,6.01654 49.2165,6.01654 48.1915,4.99156 "/>
    <polygon fill="#373737" gorn="0.72" id="polygon111"  points="45.4085,2.20843 44.3845,1.18445 44.3845,6.01654 45.4085,4.99156 "/>
    <rect height="2.7831199" fill="none" gorn="0.73" y="2.2084301" id="connector7pin"  x="52.608501" width="2.7831199"/>
    <rect height="2.2565801" fill="none" gorn="0.74" y="2.47054" id="connector7terminal"  x="52.918301" width="2.1582899"/>
    <rect height="2.7831199" gorn="0.75" y="2.2084301" id="rect115"  x="52.608501" width="2.7831199"/>
    <polygon fill="#2a2a29" gorn="0.76" id="polygon117"  points="55.3915,2.20843 56.4165,1.18445 51.5845,1.18445 52.6085,2.20843 "/>
    <polygon fill="#474747" gorn="0.77" id="polygon119"  points="55.3915,4.99156 56.4165,6.01654 56.4165,1.18445 55.3915,2.20843 "/>
    <polygon fill="#595959" gorn="0.78" id="polygon121"  points="52.6085,4.99156 51.5845,6.01654 56.4165,6.01654 55.3915,4.99156 "/>
    <polygon fill="#373737" gorn="0.79" id="polygon123"  points="52.6085,2.20843 51.5845,1.18445 51.5845,6.01654 52.6085,4.99156 "/>
    <rect height="2.7831199" fill="none" gorn="0.80" y="2.2084301" id="connector8pin"  x="59.808498" width="2.7831199"/>
    <rect height="2.2565801" fill="none" gorn="0.81" y="2.47054" id="connector8terminal"  x="60.118301" width="2.1582899"/>
    <rect height="2.7831199" gorn="0.82" y="2.2084301" id="rect127"  x="59.808498" width="2.7831199"/>
    <polygon fill="#2a2a29" gorn="0.83" id="polygon129"  points="62.5915,2.20843 63.6165,1.18445 58.7845,1.18445 59.8085,2.20843 "/>
    <polygon fill="#474747" gorn="0.84" id="polygon131"  points="62.5915,4.99156 63.6165,6.01654 63.6165,1.18445 62.5915,2.20843 "/>
    <polygon fill="#595959" gorn="0.85" id="polygon133"  points="59.8085,4.99156 58.7845,6.01654 63.6165,6.01654 62.5915,4.99156 "/>
    <polygon fill="#373737" gorn="0.86" id="polygon135"  points="59.8085,2.20843 58.7845,1.18445 58.7845,6.01654 59.8085,4.99156 "/>
    <rect height="2.7831199" fill="none" gorn="0.87" y="2.2084301" id="connector9pin"  x="67.008499" width="2.7831199"/>
    <rect height="2.2565801" fill="none" gorn="0.88" y="2.47054" id="connector9terminal"  x="67.318298" width="2.1582899"/>
    <rect height="2.7831199" gorn="0.89" y="2.2084301" id="rect139"  x="67.008499" width="2.7831199"/>
    <polygon fill="#2a2a29" gorn="0.90" id="polygon141"  points="69.7915,2.20843 70.8165,1.18445 65.9845,1.18445 67.0085,2.20843 "/>
    <polygon fill="#474747" gorn="0.91" id="polygon143"  points="69.7915,4.99156 70.8165,6.01654 70.8165,1.18445 69.7915,2.20843 "/>
    <polygon fill="#595959" gorn="0.92" id="polygon145"  points="67.0085,4.99156 65.9845,6.01654 70.8165,6.01654 69.7915,4.99156 "/>
    <polygon fill="#373737" gorn="0.93" id="polygon147"  points="67.0085,2.20843 65.9845,1.18445 65.9845,6.01654 67.0085,4.99156 "/>
</svg>
