<?xml version="1.0" encoding="utf-8" ?>

<svg baseProfile="full" height="0.334972in" version="1.1" viewBox="0 0 231981 88734" width="0.8757372502567895in" xmlns="http://www.w3.org/2000/svg" xmlns:ev="http://www.w3.org/2001/xml-events" xmlns:xlink="http://www.w3.org/1999/xlink">
<defs />
<path d="M 207772 41602 l -123 17 -183211 0 0 -41521 c 7776 -115 16651 -123 183334 -17 l 0 41530 0 -8 z" fill="#EB9922" />
<path d="M 24439 97 c 7768 -115 16634 -131 183334 -25 l 0 2756 c -7735 -106 -16602 -91 -183334 25 l 0 -2756 z" fill="#D3891E" />
<path d="M 230977 41315 c0,3109 -1862,5085 -5094,5085l-8186 0c-4643,-7243 11558,0 0,0 -1887,-2937 -5176,-4889 -8924,-4889 -452,0 -894,25 -1329,82l0 -41530c9056,131 16487,418 18440,885 2731,664 4159,2568 5094,5094 2256,6119 0,35263 0,35263l-1 9z" fill="#EB9922" />
<path d="M 207452 73 c9121,123 16602,418 18563,894 2731,664 4159,2568 5094,5094 821,2215 985,7710 796,13345 -41,-4650 -115,-8727 -796,-10581 -935,-2526 -2354,-4429 -5094,-5094 -1961,-467 -9441,-762 -18563,-894l0 -2756 0 -7zm23525 41242c0,3109 -1862,5085 -5094,5085 -14371,0 -5340,0 -8186,0 -1887,-2937 -5176,-4889 -8924,-4889 -452,0 -894,25 -1329,82l0 -6545c452,-66 894,-98 1329,-98 3790,0 8440,2666 11016,5930 1124,1477 -6414,-8047 -378,-140 2149,2756 5250,1083 6184,590 2633,-1681 3748,-3683 4151,-5340 1066,-4331 2018,-11271 2158,-22861 197,10753 -935,28184 -935,28184l7 1z" fill="#D3891E" />
<path d="M 227885 5142 c-2067,-1542 -8219,-394 -8252,1944 6365,3822 5766,21466 5709,23680 8,4773 2838,5266 3076,5274 2108,41 4700,-26986 -533,-30899l0 1z" enable-background="new" fill="#FEFEFE" fill-opacity="0.549020" />
<line fill="none" stroke="#96989A" stroke-linecap="round" stroke-width="5297.99" x1="10076" x2="10076" y1="51937" y2="86085" />
<rect fill="#727376" height="5299" width="11804" x="4170" y="46401" />
<rect fill="#E6E7E8" height="5299" width="1591" x="5867" y="46401" />
<rect fill="none" height="10598" id="connector0pin" width="5299" x="7427" y="78136" />
<line fill="none" stroke="#96989A" stroke-linecap="round" stroke-width="5297.99" x1="36570" x2="36570" y1="51937" y2="86085" />
<rect fill="#727376" height="5299" width="11804" x="30664" y="46401" />
<rect fill="#E6E7E8" height="5299" width="1591" x="32361" y="46401" />
<rect fill="none" height="10598" id="connector1pin" width="5299" x="33921" y="78136" />
<path d="M 49808 41520 c-3748,0 -7046,1944 -8924,4889l-8637 0c-1887,-2937 -5176,-4889 -8924,-4889l0 0 0 -10376 26494 0 0 10376 -8 0z" fill="#EB9922" />
<path d="M 49808 34958 l0 6562c-3748,0 -7046,1944 -8924,4889l-8637 0c-1887,-2937 -5176,-4889 -8924,-4889l0 0 0 -6562 0 0c3765,0 8449,2657 11016,5930 1477,1969 2969,1895 4463,0 2559,-3256 7226,-5930 11016,-5930l-9 0z" fill="#D3891E" />
<line fill="none" stroke="#96989A" stroke-linecap="round" stroke-width="5297.99" x1="63064" x2="63064" y1="51937" y2="86085" />
<rect fill="#727376" height="5299" width="11804" x="57158" y="46401" />
<rect fill="#E6E7E8" height="5299" width="1591" x="58855" y="46401" />
<rect fill="none" height="10598" id="connector2pin" width="5299" x="60415" y="78136" />
<path d="M 76302 41520 c-3748,0 -7046,1944 -8924,4889l-8637 0c-1887,-2937 -5176,-4889 -8924,-4889l0 0 0 -10376 26494 0 0 10376 -8 0z" fill="#EB9922" />
<path d="M 76302 34958 l0 6562c-3748,0 -7046,1944 -8924,4889l-8637 0c-1887,-2937 -5176,-4889 -8924,-4889l0 0 0 -6562 0 0c3765,0 8449,2657 11016,5930 1477,1969 2969,1895 4463,0 2559,-3256 7226,-5930 11016,-5930l-9 0z" fill="#D3891E" />
<line fill="none" stroke="#96989A" stroke-linecap="round" stroke-width="5297.99" x1="89558" x2="89558" y1="51937" y2="86085" />
<rect fill="#727376" height="5299" width="11804" x="83652" y="46401" />
<rect fill="#E6E7E8" height="5299" width="1591" x="85349" y="46401" />
<rect fill="none" height="10598" id="connector3pin" width="5299" x="86909" y="78136" />
<path d="M 102796 41520 c-3748,0 -7046,1944 -8924,4889l-8637 0c-1887,-2937 -5176,-4889 -8924,-4889l0 0 0 -10376 26494 0 0 10376 -8 0z" fill="#EB9922" />
<path d="M 102796 34958 l0 6562c-3748,0 -7046,1944 -8924,4889l-8637 0c-1887,-2937 -5176,-4889 -8924,-4889l0 0 0 -6562 0 0c3765,0 8449,2657 11016,5930 1477,1969 2969,1895 4463,0 2559,-3256 7226,-5930 11016,-5930l-9 0z" fill="#D3891E" />
<line fill="none" stroke="#96989A" stroke-linecap="round" stroke-width="5297.99" x1="116052" x2="116052" y1="51937" y2="86085" />
<rect fill="#727376" height="5299" width="11804" x="110146" y="46401" />
<rect fill="#E6E7E8" height="5299" width="1591" x="111843" y="46401" />
<rect fill="none" height="10598" id="connector4pin" width="5299" x="113403" y="78136" />
<path d="M 129290 41520 c-3748,0 -7046,1944 -8924,4889l-8637 0c-1887,-2937 -5176,-4889 -8924,-4889l0 0 0 -10376 26494 0 0 10376 -8 0z" fill="#EB9922" />
<path d="M 129290 34958 l0 6562c-3748,0 -7046,1944 -8924,4889l-8637 0c-1887,-2937 -5176,-4889 -8924,-4889l0 0 0 -6562 0 0c3765,0 8449,2657 11016,5930 1477,1969 2969,1895 4463,0 2559,-3256 7226,-5930 11016,-5930l-9 0z" fill="#D3891E" />
<line fill="none" stroke="#96989A" stroke-linecap="round" stroke-width="5297.99" x1="142546" x2="142546" y1="51937" y2="86085" />
<rect fill="#727376" height="5299" width="11804" x="136640" y="46401" />
<rect fill="#E6E7E8" height="5299" width="1591" x="138337" y="46401" />
<rect fill="none" height="10598" id="connector5pin" width="5299" x="139897" y="78136" />
<path d="M 155784 41520 c-3748,0 -7046,1944 -8924,4889l-8637 0c-1887,-2937 -5176,-4889 -8924,-4889l0 0 0 -10376 26494 0 0 10376 -8 0z" fill="#EB9922" />
<path d="M 155784 34958 l0 6562c-3748,0 -7046,1944 -8924,4889l-8637 0c-1887,-2937 -5176,-4889 -8924,-4889l0 0 0 -6562 0 0c3765,0 8449,2657 11016,5930 1477,1969 2969,1895 4463,0 2559,-3256 7226,-5930 11016,-5930l-9 0z" fill="#D3891E" />
<line fill="none" stroke="#96989A" stroke-linecap="round" stroke-width="5297.99" x1="169040" x2="169040" y1="51937" y2="86085" />
<rect fill="#727376" height="5299" width="11804" x="163134" y="46401" />
<rect fill="#E6E7E8" height="5299" width="1591" x="164831" y="46401" />
<rect fill="none" height="10598" id="connector6pin" width="5299" x="166391" y="78136" />
<path d="M 182278 41520 c-3748,0 -7046,1944 -8924,4889l-8637 0c-1887,-2937 -5176,-4889 -8924,-4889l0 0 0 -10376 26494 0 0 10376 -8 0z" fill="#EB9922" />
<path d="M 182278 34958 l0 6562c-3748,0 -7046,1944 -8924,4889l-8637 0c-1887,-2937 -5176,-4889 -8924,-4889l0 0 0 -6562 0 0c3765,0 8449,2657 11016,5930 1477,1969 2969,1895 4463,0 2559,-3256 7226,-5930 11016,-5930l-9 0z" fill="#D3891E" />
<line fill="none" stroke="#96989A" stroke-linecap="round" stroke-width="5297.99" x1="195534" x2="195534" y1="51937" y2="86085" />
<rect fill="#727376" height="5299" width="11804" x="189628" y="46401" />
<rect fill="#E6E7E8" height="5299" width="1591" x="191325" y="46401" />
<rect fill="none" height="10598" id="connector7pin" width="5299" x="192885" y="78136" />
<path d="M 208772 41520 c-3748,0 -7046,1944 -8924,4889l-8637 0c-1887,-2937 -5176,-4889 -8924,-4889l0 0 0 -10376 26494 0 0 10376 -8 0z" fill="#EB9922" />
<path d="M 208772 34958 l0 6562c-3748,0 -7046,1944 -8924,4889l-8637 0c-1887,-2937 -5176,-4889 -8924,-4889l0 0 0 -6562 0 0c3765,0 8449,2657 11016,5930 1477,1969 2969,1895 4463,0 2559,-3256 7226,-5930 11016,-5930l-9 0z" fill="#D3891E" />
<line fill="none" stroke="#96989A" stroke-linecap="round" stroke-width="5297.99" x1="222028" x2="222028" y1="51937" y2="86085" />
<rect fill="#727376" height="5299" width="11804" x="216122" y="46401" />
<rect fill="#E6E7E8" height="5299" width="1591" x="217819" y="46401" />
<rect fill="none" height="10598" id="connector8pin" width="5299" x="219379" y="78136" />
<path d="M24766 41618c-476,-66 -951,-98 -1443,-98 -3748,0 -7046,1944 -8924,4889l-8440 0c-3289,0 -5094,-4905 -5094,-5094 0,0 -1944,-29143 0,-35255 853,-2682 2608,-4618 5094,-5094 2280,-435 9794,-730 18816,-870l0 41521 -8 -1z" fill="#EB9922" />
<path d="M24766 41618c-467,-66 -951,-98 -1443,-98 -3748,0 -7046,1944 -8924,4889l-8440 0c-3289,0 -5094,-4905 -5094,-5094 0,0 -1017,-15273 -845,-26027 303,9728 812,18924 1214,20367 762,2822 2108,4036 4577,5815 1961,878 4249,1870 6496,-575 2568,-3264 7251,-5930 11016,-5930 467,0 951,41 1443,123l0 6537 -1 -8zm-24640 -22278c-41,-5800 148,-11057 861,-13279 853,-2682 2608,-4618 5094,-5094 2273,-435 9720,-730 18686,-870l0 2756c-8965,140 -16413,435 -18686,870 -2485,476 -4240,2411 -5094,5094 -590,1862 -821,5864 -861,10524l0 -1z" fill="#D3891E" />
<path d="M4817 4511c3249,-1452 10196,-229 10057,2322 -8005,0 -5356,18357 -7653,23591 -1615,3675 -2256,4675 -4749,5577 -1239,-353 -3232,-28996 2346,-31490z" enable-background="new" fill="#FEFEFE" fill-opacity="0.549020" />
<circle cx="11133" cy="31398" r="2649" />
<text fill="#5F6160" font-family="Droid Sans" font-size="18395.9" font-weight="normal" x="13782" y="31398">
L 09 1 221</text>
</svg>
