<?xml version='1.0' encoding='UTF-8' standalone='no'?>
<!-- Created with Fritzing (https://fritzing.org/) -->
<svg xmlns="http://www.w3.org/2000/svg" baseProfile="tiny" width="0.67244in" y="0in" xmlns:svg="http://www.w3.org/2000/svg" viewBox="0 0 48.4157 80.642" x="0in" height="1.12003in" version="1.2" >
 <g id="watermark" >
  <g >
   <g >
    <path d="M23.6837,74.442c-0.604,0,-1.131,0.325,-1.422,0.809l-2.796,0l3.96,-4.071c0.146,-0.146,0.289,-0.322,0.428,-0.521c0.149,-0.222,0.228,-0.479,0.228,-0.768c0,-0.279,-0.097,-0.518,-0.287,-0.71c-0.19,-0.188,-0.444,-0.287,-0.754,-0.287l-4.636,0c-0.305,0,-0.555,0.06,-0.742,0.17c-0.219,0.13,-0.33,0.368,-0.33,0.707c0,0.329,0.111,0.562,0.33,0.692c0.188,0.111,0.438,0.168,0.742,0.168l3.148,0l-3.974,4.086c-0.146,0.147,-0.289,0.315,-0.425,0.504c-0.153,0.212,-0.23,0.472,-0.23,0.771c0,0.28,0.096,0.521,0.288,0.711c0.188,0.188,0.442,0.285,0.754,0.285l4.315,0c0.293,0.467,0.812,0.776,1.4,0.776c0.916,0,1.66,-0.744,1.66,-1.661C25.3427,75.187,24.5977,74.442,23.6837,74.442zM23.6837,76.705c-0.334,0,-0.604,-0.271,-0.604,-0.604c0,-0.333,0.27,-0.604,0.604,-0.604c0.332,0,0.604,0.271,0.604,0.604C24.2867,76.436,24.0157,76.705,23.6837,76.705z" fill="#8C8C8C" />
    <path d="M6.74068,64.4c-0.914,0,-1.659,0.745,-1.659,1.66c0,0.916,0.745,1.66,1.659,1.66s1.658,-0.744,1.658,-1.66C8.40068,65.145,7.65668,64.4,6.74068,64.4zM6.74168,66.663c-0.333,0,-0.604,-0.27,-0.604,-0.603s0.271,-0.603,0.604,-0.603c0.331,0,0.604,0.27,0.604,0.603S7.07268,66.663,6.74168,66.663z" fill="#8C8C8C" />
    <path d="M15.2617,69.062c-0.193,-0.111,-0.439,-0.169,-0.732,-0.169l-1.465,0L13.0647,66.371c0,-0.292,-0.057,-0.538,-0.166,-0.729C12.8087,65.485,12.6157,65.3,12.2057,65.3c-0.34,0,-0.578,0.116,-0.709,0.342c-0.109,0.193,-0.167,0.438,-0.167,0.729l0,2.521l-0.481,0c-0.295,0,-0.539,0.06,-0.731,0.169c-0.228,0.129,-0.341,0.368,-0.341,0.708c0,0.412,0.185,0.603,0.341,0.692c0.192,0.111,0.438,0.168,0.731,0.168l0.481,0l0,4.362c0,0.277,0.026,0.533,0.081,0.768c0.056,0.246,0.154,0.464,0.298,0.645c0.146,0.186,0.345,0.332,0.595,0.436c0.241,0.098,0.555,0.146,0.93,0.146l0.896,0c0.292,0,0.539,-0.054,0.731,-0.166c0.154,-0.089,0.341,-0.281,0.341,-0.693c0,-0.338,-0.114,-0.578,-0.341,-0.709c-0.192,-0.109,-0.439,-0.168,-0.731,-0.168l-0.821,0c-0.138,0,-0.19,-0.019,-0.207,-0.024c-0.014,-0.034,-0.035,-0.103,-0.035,-0.231L13.0667,70.63l1.465,0c0.295,0,0.541,-0.057,0.734,-0.168c0.152,-0.09,0.34,-0.28,0.34,-0.692C15.6017,69.43,15.4887,69.191,15.2617,69.062z" fill="#8C8C8C" />
    <path d="M6.80668,68.892l-1.191,0c-0.292,0,-0.538,0.059,-0.731,0.169c-0.226,0.129,-0.341,0.368,-0.341,0.708c0,0.412,0.188,0.604,0.341,0.691c0.193,0.113,0.439,0.168,0.731,0.168l0.544,0l0,5.362c0,0.293,0.057,0.539,0.167,0.73c0.131,0.227,0.367,0.341,0.708,0.341c0.411,0,0.604,-0.187,0.692,-0.341c0.111,-0.191,0.168,-0.438,0.168,-0.73L7.89468,69.98c0,-0.386,-0.084,-0.656,-0.256,-0.83C7.46368,68.978,7.19368,68.892,6.80668,68.892z" fill="#8C8C8C" />
    <path d="M2.97168,69.062c-0.193,-0.111,-0.44,-0.169,-0.732,-0.169l-0.604,0c-0.25,0,-0.498,0.063,-0.734,0.187c-0.226,0.119,-0.433,0.271,-0.616,0.453l-0.644,0.604l0,-0.247c0,-0.291,-0.055,-0.538,-0.168,-0.729c-0.128,-0.228,-0.368,-0.34,-0.707,-0.34c-0.41,0,-0.604,0.184,-0.693,0.34c-0.11,0.191,-0.167,0.438,-0.167,0.729l0,4.801c-0.475,0.293,-0.791,0.816,-0.791,1.412c0,0.917,0.745,1.661,1.658,1.661c0.916,0,1.66,-0.744,1.66,-1.661c0,-0.596,-0.317,-1.119,-0.792,-1.412l0,-2.21l1.738,-1.564c0.1,-0.09,0.199,-0.164,0.297,-0.217c0.084,-0.045,0.174,-0.067,0.274,-0.067l0.288,0c0.292,0,0.539,-0.056,0.732,-0.169c0.155,-0.088,0.339,-0.279,0.339,-0.691C3.31168,69.43,3.19668,69.191,2.97168,69.062zM-1.22732,76.705c-0.332,0,-0.603,-0.271,-0.603,-0.604c0,-0.333,0.271,-0.604,0.603,-0.604c0.333,0,0.604,0.271,0.604,0.604C-0.62332,76.436,-0.89432,76.705,-1.22732,76.705z" fill="#8C8C8C" />
    <path d="M-3.74432,65.543c-0.193,-0.111,-0.44,-0.167,-0.731,-0.167l-0.59,0c-0.2,0,-0.389,0.004,-0.562,0.016c-0.176,0.009,-0.345,0.035,-0.506,0.07c-0.168,0.041,-0.336,0.109,-0.496,0.202c-0.158,0.093,-0.319,0.222,-0.48,0.382c-0.334,0.314,-0.554,0.656,-0.652,1.017c-0.094,0.348,-0.143,0.735,-0.143,1.151l0,0.678l-0.483,0c-0.292,0,-0.539,0.059,-0.73,0.169c-0.227,0.13,-0.342,0.369,-0.342,0.708c0,0.412,0.185,0.604,0.341,0.693c0.191,0.111,0.438,0.166,0.73,0.166l0.483,0l0,5.362c0,0.293,0.057,0.539,0.167,0.73c0.13,0.227,0.367,0.341,0.708,0.341c0.411,0,0.603,-0.187,0.692,-0.341c0.111,-0.191,0.168,-0.438,0.168,-0.73l0,-5.36l0.92,0c0.293,0,0.54,-0.057,0.732,-0.168c0.155,-0.09,0.34,-0.28,0.34,-0.692c0,-0.34,-0.114,-0.579,-0.34,-0.708c-0.189,-0.111,-0.436,-0.17,-0.729,-0.17l-0.92,0l0,-0.678c0,-0.218,0.019,-0.41,0.056,-0.571c0.032,-0.141,0.103,-0.261,0.218,-0.367l0.002,-0.004l0.002,-0.002c0.082,-0.082,0.176,-0.126,0.29,-0.136c0.15,-0.015,0.339,-0.022,0.564,-0.022l0.56,0c0.291,0,0.539,-0.058,0.731,-0.168c0.154,-0.088,0.339,-0.281,0.339,-0.693C-3.40432,65.912,-3.51932,65.673,-3.74432,65.543z" fill="#8C8C8C" />
    <path d="M48.2487,69.16c-0.089,-0.156,-0.282,-0.34,-0.693,-0.34c-0.339,0,-0.578,0.113,-0.707,0.34c-0.078,0.133,-0.127,0.293,-0.152,0.477l-0.021,-0.021c-0.216,-0.236,-0.466,-0.42,-0.747,-0.539c-0.277,-0.119,-0.563,-0.183,-0.849,-0.183l-0.709,0c-0.249,0,-0.466,0.015,-0.64,0.041c-0.182,0.026,-0.352,0.074,-0.51,0.14c-0.158,0.066,-0.313,0.15,-0.459,0.254c-0.139,0.097,-0.303,0.226,-0.486,0.377c-0.188,0.156,-0.342,0.302,-0.463,0.434c-0.127,0.141,-0.23,0.293,-0.306,0.455c-0.069,0.16,-0.122,0.337,-0.147,0.523c-0.026,0.178,-0.041,0.391,-0.041,0.631l0,2.386c0,0.24,0.015,0.451,0.041,0.631c0.025,0.188,0.078,0.361,0.147,0.521c0.074,0.164,0.179,0.318,0.306,0.457c0.119,0.129,0.274,0.274,0.463,0.433c0.186,0.153,0.35,0.28,0.486,0.379c0.146,0.103,0.299,0.188,0.459,0.254c0.158,0.065,0.329,0.112,0.51,0.14c0.174,0.026,0.389,0.039,0.64,0.039l0.709,0c0.298,0,0.591,-0.066,0.87,-0.199c0.244,-0.114,0.492,-0.291,0.73,-0.523l0,1.434c0,0.18,-0.025,0.334,-0.072,0.465c-0.043,0.119,-0.159,0.258,-0.344,0.406c-0.154,0.127,-0.309,0.217,-0.457,0.264c-0.15,0.049,-0.341,0.074,-0.563,0.074l-2.203,0c-0.293,0,-0.538,0.055,-0.732,0.166c-0.152,0.088,-0.34,0.282,-0.34,0.692c0,0.341,0.115,0.579,0.34,0.71c0.194,0.109,0.439,0.167,0.732,0.167l2.326,0c0.247,0,0.463,-0.015,0.638,-0.041c0.179,-0.026,0.351,-0.073,0.513,-0.14c0.153,-0.064,0.31,-0.15,0.455,-0.254c0.143,-0.101,0.305,-0.227,0.487,-0.379c0.185,-0.153,0.343,-0.299,0.463,-0.431c0.128,-0.141,0.229,-0.294,0.304,-0.456c0.071,-0.162,0.123,-0.338,0.148,-0.523c0.025,-0.182,0.041,-0.393,0.041,-0.631l0,-7.898C48.4157,69.598,48.3617,69.351,48.2487,69.16zM46.6797,73.62c0,0.188,-0.062,0.35,-0.188,0.49c-0.15,0.172,-0.394,0.403,-0.716,0.686l-0.002,0.003l-0.002,0.004c-0.139,0.13,-0.291,0.237,-0.453,0.325c-0.148,0.082,-0.325,0.121,-0.526,0.121L44.4917,75.249c-0.222,0,-0.41,-0.021,-0.563,-0.072c-0.148,-0.049,-0.301,-0.137,-0.453,-0.264c-0.231,-0.186,-0.315,-0.322,-0.346,-0.404c-0.049,-0.131,-0.072,-0.285,-0.072,-0.465l0,-2.206c0,-0.18,0.023,-0.336,0.072,-0.467c0.029,-0.082,0.113,-0.217,0.346,-0.403c0.152,-0.127,0.305,-0.216,0.453,-0.265c0.153,-0.049,0.342,-0.072,0.563,-0.072l0.301,0c0.212,0,0.388,0.037,0.526,0.113c0.152,0.082,0.308,0.191,0.457,0.324c0.322,0.293,0.564,0.529,0.716,0.7c0.128,0.146,0.188,0.304,0.188,0.492L46.6797,73.62z" fill="#8C8C8C" />
    <path d="M28.2697,64.4c-0.914,0,-1.66,0.745,-1.66,1.66c0,0.916,0.746,1.66,1.66,1.66s1.66,-0.744,1.66,-1.66C29.9297,65.145,29.1837,64.4,28.2697,64.4zM28.2697,66.663c-0.332,0,-0.604,-0.27,-0.604,-0.603s0.271,-0.603,0.604,-0.603s0.604,0.27,0.604,0.603C28.8737,66.393,28.6017,66.663,28.2697,66.663z" fill="#8C8C8C" />
    <path d="M38.9557,74.668l-0.107,-3.419c-0.011,-0.178,-0.021,-0.338,-0.031,-0.489c-0.01,-0.162,-0.037,-0.322,-0.082,-0.476c-0.045,-0.158,-0.11,-0.309,-0.198,-0.453c-0.093,-0.146,-0.216,-0.289,-0.37,-0.42c-0.225,-0.192,-0.443,-0.334,-0.646,-0.416c-0.207,-0.084,-0.461,-0.127,-0.754,-0.127l-1.012,0c-0.259,0,-0.501,0.058,-0.716,0.164c-0.197,0.098,-0.39,0.203,-0.572,0.315l-0.003,0.002l-0.003,0.003l-0.837,0.555l0,-0.041c0,-0.291,-0.057,-0.539,-0.168,-0.733c-0.129,-0.226,-0.367,-0.339,-0.707,-0.339c-0.411,0,-0.604,0.185,-0.693,0.339c-0.109,0.194,-0.168,0.438,-0.168,0.733l0,6.099c0,0.295,0.059,0.539,0.168,0.734c0.09,0.153,0.282,0.338,0.693,0.338c0.34,0,0.578,-0.114,0.707,-0.338c0.111,-0.195,0.168,-0.439,0.168,-0.734L33.6247,71.93l1.953,-1.215c0.04,-0.024,0.082,-0.048,0.121,-0.063c0.031,-0.016,0.07,-0.025,0.115,-0.031c0.049,-0.012,0.117,-0.016,0.195,-0.016l0.362,0c0.188,0,0.334,0.021,0.435,0.059c0.082,0.029,0.143,0.076,0.18,0.143c0.05,0.078,0.08,0.18,0.098,0.303c0.02,0.139,0.034,0.309,0.045,0.504l0.096,3.097c-0.457,0.297,-0.762,0.811,-0.762,1.394c0,0.917,0.746,1.661,1.66,1.661c0.916,0,1.66,-0.744,1.66,-1.661C39.7817,75.493,39.4487,74.955,38.9557,74.668zM38.1217,76.705c-0.334,0,-0.602,-0.271,-0.602,-0.604c0,-0.333,0.268,-0.604,0.602,-0.604c0.333,0,0.604,0.271,0.604,0.604C38.7267,76.436,38.4547,76.705,38.1217,76.705z" fill="#8C8C8C" />
    <path d="M28.3327,68.892l-1.193,0c-0.293,0,-0.539,0.059,-0.731,0.169c-0.226,0.129,-0.341,0.368,-0.341,0.708c0,0.412,0.186,0.604,0.341,0.691c0.192,0.113,0.438,0.168,0.731,0.168l0.545,0l0,5.362c0,0.293,0.055,0.539,0.168,0.73c0.127,0.227,0.365,0.341,0.707,0.341c0.41,0,0.604,-0.187,0.691,-0.341c0.111,-0.191,0.17,-0.438,0.17,-0.73L29.4207,69.98c0,-0.386,-0.085,-0.656,-0.259,-0.83C28.9897,68.978,28.7167,68.892,28.3327,68.892z" fill="#8C8C8C" />
   </g>
  </g>
 </g>
 <g partID="855129870">
  <g id="breadboard">
   <g id="icon">
    <path stroke-width="0" d="M0,0L0,26.64A2.16,2.16,0,0,1,0,30.96L0,57.6L48.4157,57.6L48.4157,0L0,0z" stroke="none" fill="#1F7A34"/>
    <g transform="matrix(1, 0, 0, 1, 7.2, 11.7922)">
     <g>
      <polygon points="34.0157,31.0307,34.0157,2.98398,31.0307,0,2.98398,0,0,2.98398,0,31.0307,2.98398,34.0157,31.0317,34.0157"/>
      <g>
       <path d="M31.7917,29.3847c0,1.32799,-1.07999,2.41198,-2.41098,2.41198L4.63296,31.7967c-1.32599,0,-2.40898,-1.08399,-2.40898,-2.41198L2.22398,4.63195c0,-1.32599,1.08299,-2.40898,2.40898,-2.40898l24.7518,0c1.32699,0,2.40697,1.08299,2.40697,2.40898L31.7917,29.3847L31.7917,29.3847z" fill="#999999"/>
       <circle cy="6.52994" r="2.56198" cx="6.52894"/>
       <circle cy="6.57594" r="2.56098" cx="27.5587"/>
       <circle cy="27.6037" r="2.56198" cx="27.5127"/>
       <circle cy="27.5558" r="2.56198" cx="6.48394"/>
       <circle cy="17.0088" r="8.62394" fill="#3F3F3F" cx="17.0058"/>
       <circle cy="17.0088" r="8.62394" fill="#2D2D2D" cx="17.0058"/>
       <circle cy="18.0328" opacity="0.6" r="7.58794" cx="17.1568"/>
       <circle cy="17.0598" r="7.3949" fill="#313131" cx="17.0178"/>
       <path d="M6.19794,6.39594C6.24994,6.27694,6.34094,6.18294,6.47394,6.16194L6.21994,4.54596C6.12294,4.56196,6.02094,4.54896,5.92595,4.57996L5.92394,4.57196C5.32595,4.75495,4.88095,5.20095,4.64995,5.76894L6.19794,6.39594z" opacity="0.5" fill="#FFFFFF"/>
       <path d="M27.2247,6.44094c0.0499995,-0.122999,0.141998,-0.215998,0.274998,-0.236998l-0.248998,-1.61399c-0.101999,0.0179999,-0.198998,0.00299997,-0.297997,0.0309997l-0.00399996,-0.00899993c-0.590995,0.182998,-1.03899,0.627994,-1.26798,1.19699L27.2247,6.44094z" opacity="0.5" fill="#FFFFFF"/>
       <path d="M27.1817,27.4687c0.0509995,-0.124998,0.140998,-0.216998,0.274998,-0.237997l-0.251998,-1.61299c-0.0979992,0.0179999,-0.198998,0.00399996,-0.293997,0.0329997l-0.00399996,-0.0139999c-0.594994,0.183998,-1.04299,0.628994,-1.26899,1.19899L27.1817,27.4687z" opacity="0.5" fill="#FFFFFF"/>
       <path d="M6.15194,27.4237c0.0509995,-0.122999,0.142998,-0.212998,0.276998,-0.235998l-0.253997,-1.61498c-0.0979992,0.0229998,-0.198998,0.00399996,-0.294997,0.0329997l-0.00299997,-0.00799992c-0.596994,0.179999,-1.04199,0.626994,-1.27199,1.19699L6.15194,27.4237z" opacity="0.5" fill="#FFFFFF"/>
       <path d="M19.6638,10.1669c-0.571995,-0.222998,-1.17499,-0.382996,-1.81298,-0.456996c-1.58898,-0.175998,-3.10797,0.174998,-4.40696,0.894989l-0.160998,0.420996c1.44999,-0.774994,3.13997,-1.13599,4.89795,-0.937994c0.541995,0.0629994,1.06799,0.183998,1.56699,0.343997L19.6638,10.1669z" opacity="0.6" fill="#FFFFFF"/>
      </g>
     </g>
    </g>
   </g>
   <g transform="matrix(1, 0, 0, 1, 19.4584, 52.8516)">
    <g>
     <rect width="2.29896" y="0" id="connector0pin" x="0" height="2.2968" fill="#8D8C8C"/>
     <rect width="1.18398" y="0.556952" x="0.56099" height="1.18189" fill="#8C8663"/>
     <polygon points="0,2.2968,0.56099,1.73785,0.56099,0.501957,0,0" fill="#B8AF82"/>
     <polygon points="1.74297,0.558951,0.56899,0.558951,0,0,2.29896,0" fill="#80795B"/>
     <polygon points="1.74297,1.73785,1.74297,0.558951,2.29896,0,2.29896,2.2968" fill="#5E5B43"/>
     <polygon points="0,2.2968,0.56699,1.73785,1.74297,1.73785,2.29896,2.2968" fill="#9A916C"/>
    </g>
   </g>
   <g transform="matrix(1, 0, 0, 1, 19.4584, 2.4516)">
    <g>
     <rect width="2.29896" y="0" id="connector3pin" x="0" height="2.2968" fill="#8D8C8C"/>
     <rect width="1.18398" y="0.556952" x="0.56099" height="1.18189" fill="#8C8663"/>
     <polygon points="0,2.2968,0.56099,1.73785,0.56099,0.501957,0,0" fill="#B8AF82"/>
     <polygon points="1.74297,0.558951,0.56899,0.558951,0,0,2.29896,0" fill="#80795B"/>
     <polygon points="1.74297,1.73785,1.74297,0.558951,2.29896,0,2.29896,2.2968" fill="#5E5B43"/>
     <polygon points="0,2.2968,0.56699,1.73785,1.74297,1.73785,2.29896,2.2968" fill="#9A916C"/>
    </g>
   </g>
   <g transform="matrix(1, 0, 0, 1, 26.6584, 52.8516)">
    <g>
     <rect width="2.29896" y="0" id="connector1pin" x="0" height="2.2968" fill="#8D8C8C"/>
     <rect width="1.18398" y="0.556952" x="0.56099" height="1.18189" fill="#8C8663"/>
     <polygon points="0,2.2968,0.56099,1.73785,0.56099,0.501957,0,0" fill="#B8AF82"/>
     <polygon points="1.74297,0.558951,0.56899,0.558951,0,0,2.29896,0" fill="#80795B"/>
     <polygon points="1.74297,1.73785,1.74297,0.558951,2.29896,0,2.29896,2.2968" fill="#5E5B43"/>
     <polygon points="0,2.2968,0.56699,1.73785,1.74297,1.73785,2.29896,2.2968" fill="#9A916C"/>
    </g>
   </g>
   <g transform="matrix(1, 0, 0, 1, 26.6584, 2.4516)">
    <g>
     <rect width="2.29896" y="0" id="connector2pin" x="0" height="2.2968" fill="#8D8C8C"/>
     <rect width="1.18398" y="0.556952" x="0.56099" height="1.18189" fill="#8C8663"/>
     <polygon points="0,2.2968,0.56099,1.73785,0.56099,0.501957,0,0" fill="#B8AF82"/>
     <polygon points="1.74297,0.558951,0.56899,0.558951,0,0,2.29896,0" fill="#80795B"/>
     <polygon points="1.74297,1.73785,1.74297,0.558951,2.29896,0,2.29896,2.2968" fill="#5E5B43"/>
     <polygon points="0,2.2968,0.56699,1.73785,1.74297,1.73785,2.29896,2.2968" fill="#9A916C"/>
    </g>
   </g>
  </g>
 </g>
</svg>
