<?xml version='1.0' encoding='utf-8'?>
<!DOCTYPE svg>
<!-- Generator: Adobe Illustrator 15.1.0, SVG Export Plug-In . SVG Version: 6.00 Build 0)  -->
<svg xmlns="http://www.w3.org/2000/svg"  viewBox="0 0 114.48 36.863" id="Ebene_1" y="0px" xml:space="preserve" width="1.59in" gorn="0" height="0.511986in" enable-background="new 0 0 114.48 36.863" xmlns:xml="http://www.w3.org/XML/1998/namespace" version="1.1" x="0px">
    <desc >
        <referenceFile >sparkfun-displays_7-segment-4digit_breadboard.svg</referenceFile>
    </desc>
    <g  id="breadboard" gorn="0.1">
        <circle  id="connector0pin" gorn="0.1.0" stroke-width="0.4898" fill="none" cy="32.832" cx="32.04" r="1.97" stroke="#9A916C"/>
        <circle  id="connector1pin" gorn="0.1.1" stroke-width="0.4898" fill="none" cy="32.832" cx="39.24" r="1.97" stroke="#9A916C"/>
        <circle  id="connector2pin" gorn="0.1.2" stroke-width="0.4898" fill="none" cy="32.832" cx="46.44" r="1.97" stroke="#9A916C"/>
        <circle  id="connector3pin" gorn="0.1.3" stroke-width="0.4898" fill="none" cy="32.832" cx="53.64" r="1.97" stroke="#9A916C"/>
        <circle  id="connector4pin" gorn="0.1.4" stroke-width="0.4898" fill="none" cy="32.832" cx="60.84" r="1.97" stroke="#9A916C"/>
        <circle  id="connector5pin" gorn="0.1.5" stroke-width="0.4898" fill="none" cy="32.832" cx="68.04" r="1.97" stroke="#9A916C"/>
        <circle  id="connector6pin" gorn="0.1.6" stroke-width="0.4898" fill="none" cy="32.832" cx="75.24" r="1.97" stroke="#9A916C"/>
        <circle  id="connector7pin" gorn="0.1.7" stroke-width="0.4898" fill="none" cy="32.832" cx="82.44" r="1.97" stroke="#9A916C"/>
        <circle  id="connector8pin" gorn="0.1.8" stroke-width="0.4898" fill="none" cy="4.032" cx="82.44" r="1.97" stroke="#9A916C"/>
        <circle  id="connector9pin" gorn="0.1.9" stroke-width="0.4898" fill="none" cy="4.032" cx="68.04" r="1.97" stroke="#9A916C"/>
        <circle  id="connector10pin" gorn="0.1.10" stroke-width="0.4898" fill="none" cy="4.032" cx="53.64" r="1.97" stroke="#9A916C"/>
        <circle  id="connector11pin" gorn="0.1.11" stroke-width="0.4898" fill="none" cy="4.032" cx="46.44" r="1.97" stroke="#9A916C"/>
        <circle  id="connector12pin" gorn="0.1.12" stroke-width="0.4898" fill="none" cy="4.032" cx="39.24" r="1.97" stroke="#9A916C"/>
        <circle  id="connector13pin" gorn="0.1.13" stroke-width="0.4898" fill="none" cy="4.032" cx="32.04" r="1.97" stroke="#9A916C"/>
        <polygon  fill="#323232" points="0,0 113.365,0 114.48,1 114.48,36.864 1,36.864 0,35.557 "/>
        <polygon  fill="#646464" points="9.718,3.491 22.16,3.491 22.989,4.319 21.329,6.808 10.545,6.808 8.889,4.319 "/>
        <polygon  fill="#EF1818" points="23.819,5.148 24.648,6.808 22.989,15.934 21.329,17.591 19.672,15.934 21.329,7.636 "/>
        <polygon  fill="#EF1818" points="21.329,18.42 22.16,20.078 20.501,29.204 18.842,30.863 17.183,29.204 18.842,20.911 "/>
        <polygon  fill="#646464" points="17.183,32.522 4.74,32.522 3.91,31.69 5.569,29.204 16.354,29.204 18.012,31.692 "/>
        <polygon  fill="#EF1818" points="3.08,30.863 2.252,29.204 3.91,20.078 5.569,18.42 7.227,20.078 5.569,28.373 "/>
        <polygon  fill="#EF1818" points="5.569,17.591 4.74,15.934 6.4,6.808 8.057,5.148 9.718,6.808 8.057,15.104 "/>
        <polyline  fill="#EF1818" points="6.4,17.591 8.057,15.934 18.842,15.934 20.501,17.591 18.842,19.25 8.057,19.25 "/>
        <circle  fill="#646464" cy="30.859" cx="22.634" r="1.748"/>
        <polygon  fill="#EF1818" points="38.506,3.491 50.948,3.491 51.777,4.319 50.117,6.808 39.333,6.808 37.677,4.319 "/>
        <polygon  fill="#EF1818" points="52.607,5.148 53.436,6.808 51.777,15.934 50.117,17.591 48.46,15.934 50.117,7.636 "/>
        <polygon  fill="#EF1818" points="50.117,18.42 50.948,20.078 49.289,29.204 47.63,30.863 45.971,29.204 47.63,20.911 "/>
        <polygon  fill="#646464" points="45.971,32.522 33.528,32.522 32.698,31.69 34.357,29.204 45.142,29.204 46.8,31.692 "/>
        <polygon  fill="#EF1818" points="31.868,30.863 31.04,29.204 32.698,20.078 34.357,18.42 36.015,20.078 34.357,28.373 "/>
        <polygon  fill="#EF1818" points="34.357,17.591 33.528,15.934 35.188,6.808 36.845,5.148 38.506,6.808 36.845,15.104 "/>
        <polyline  fill="#EF1818" points="35.188,17.591 36.845,15.934 47.63,15.934 49.289,17.591 47.63,19.25 36.845,19.25 "/>
        <circle  fill="#646464" cy="30.859" cx="51.422" r="1.748"/>
        <circle  fill="#646464" cy="24.308" cx="55.621" r="1.748"/>
        <circle  fill="#646464" cy="11.369" cx="57.58" r="1.748"/>
        <circle  fill="#646464" cy="5.002" cx="87.663" r="1.748"/>
        <polygon  fill="#646464" points="67.305,3.491 79.748,3.491 80.577,4.319 78.917,6.808 68.133,6.808 66.476,4.319 "/>
        <polygon  fill="#646464" points="81.406,5.148 82.236,6.808 80.577,15.934 78.917,17.591 77.26,15.934 78.917,7.636 "/>
        <polygon  fill="#646464" points="78.917,18.42 79.748,20.078 78.089,29.204 76.429,30.863 74.771,29.204 76.429,20.911 "/>
        <polygon  fill="#EF1818" points="74.771,32.522 62.328,32.522 61.498,31.69 63.157,29.204 73.941,29.204 75.599,31.692 "/>
        <polygon  fill="#EF1818" points="60.668,30.863 59.84,29.204 61.498,20.078 63.157,18.42 64.815,20.078 63.157,28.373 "/>
        <polygon  fill="#EF1818" points="63.157,17.591 62.328,15.934 63.988,6.808 65.645,5.148 67.305,6.808 65.645,15.104 "/>
        <polyline  fill="#646464" points="63.988,17.591 65.645,15.934 76.429,15.934 78.089,17.591 76.429,19.25 65.645,19.25 "/>
        <circle  fill="#646464" cy="30.859" cx="80.222" r="1.748"/>
        <polygon  fill="#EF1818" points="96.18,3.491 108.623,3.491 109.452,4.319 107.792,6.808 97.008,6.808 95.351,4.319 "/>
        <polygon  fill="#EF1818" points="110.281,5.148 111.111,6.808 109.452,15.934 107.792,17.591 106.135,15.934 107.792,7.636 "/>
        <polygon  fill="#EF1818" points="107.792,18.42 108.623,20.078 106.964,29.204 105.304,30.863 103.646,29.204 105.304,20.911 "/>
        <polygon  fill="#EF1818" points="103.646,32.522 91.203,32.522 90.373,31.69 92.032,29.204 102.816,29.204 104.474,31.692 "/>
        <polygon  fill="#EF1818" points="89.543,30.863 88.715,29.204 90.373,20.078 92.032,18.42 93.69,20.078 92.032,28.373 "/>
        <polygon  fill="#EF1818" points="92.032,17.591 91.203,15.934 92.863,6.808 94.52,5.148 96.18,6.808 94.52,15.104 "/>
        <polyline  fill="#646464" points="92.863,17.591 94.52,15.934 105.304,15.934 106.964,17.591 105.304,19.25 94.52,19.25 "/>
        <circle  fill="#646464" cy="30.859" cx="109.097" r="1.748"/>
        <polygon  fill="#C7C7C7" points="113.48,35.557 0,35.557 1,36.864 114.48,36.864 "/>
        <polygon  fill="#AAAAAA" points="113.365,35.557 114.48,36.864 114.48,1 113.365,0 "/>
    </g>
</svg>
